PathFileType	4	(X/Y/Z)	C:/Users/beibeiliu/ov580/test_trc\sequence.13_training_dense_left.trc
DataRate	CameraRate	NumFrames	NumMarkers	Units	OrigDataRate	OrigDataStartFrame	OrigNumFrames
120	120	15	19	mm	120	1	288
Frame#	Time	ThumbCMC			ThumbMCP			ThumbIP			ThumbTip			IndexMCP			IndexPIP			IndexTip			MiddleMCP			MiddlePIP			MiddleTip			RingMCP			RingPIP			RingTip			PinkyMCP			PinkyPIP			PinkyTip			BackHand1			BackHand2			BackHand3	
		X0	Y0	Z0	X1	Y1	Z1	X2	Y2	Z2	X3	Y3	Z3	X4	Y4	Z4	X5	Y5	Z5	X6	Y6	Z6	X7	Y7	Z7	X8	Y8	Z8	X9	Y9	Z9	X10	Y10	Z10	X11	Y11	Z11	X12	Y12	Z12	X13	Y13	Z13	X14	Y14	Z14	X15	Y15	Z15	X16	Y16	Z16	X17	Y17	Z17	X18	Y18	Z18	
0	0	-144.798	-51.6658	23.5178	-136.113	-49.2751	-5.2781	-122.76	-43.7225	-25.1249	-115.457	-31.5056	-46.5013	-117.979	-0.253315	-11.0583	-112.456	0.64707	-38.3539	-126.015	-20.8445	-59.5182	-128.572	18.528	-8.1531	-118.756	35.2054	-22.7163	-110.428	52.3756	-38.7252	-145.795	24.2711	-1.56204	-138.701	38.8171	-6.19058	-130.746	56.1965	-9.69998	-171.464	22.5412	2.81305	-165.768	35.0424	-0.019331	-155.268	51.8311	2.58544	-163.437	1.73802	23.6347	-177.528	-13.7126	45.8934	-148.224	-18.2107	37.3058	
1	0.00833333	-144.54	-45.7496	18.2118	-134.792	-46.4971	-9.66078	-127.618	-38.3078	-28.7342	-120.663	-30.1721	-52.3086	-119.847	3.9462	-18.8681	-118.754	2.12483	-48.9328	-134.91	-19.9554	-62.3629	-129.434	23.3085	-16.0819	-122.4	36.0953	-29.133	-115.539	54.1427	-49.2468	-153.006	28.6835	-5.0075	-140.691	42.5339	-12.1746	-131.167	64.421	-15.7665	-173.964	20.8165	-0.309056	-168.455	43.1251	-1.66119	-163.568	54.7337	2.83238	-168.202	3.45195	21.1248	-174.328	-9.09361	41.7195	-146.732	-14.5279	30.8527	
2	0.0166667	-144.906	-43.7982	14.5254	-137.939	-45.5962	-12.438	-127.456	-38.6861	-38.3877	-126.804	-33.0738	-55.302	-118.124	4.04618	-30.7256	-123.593	3.22317	-54.9537	-136.591	-20.5124	-66.187	-135.445	24.759	-22.1474	-126.515	37.7337	-40.6307	-119.345	50.9388	-60.3664	-151.978	27.0642	-11.26	-142.36	49.0961	-21.7378	-136.429	66.5832	-26.0395	-176.712	24.88	-2.68816	-173.327	43.3868	-5.32535	-166.87	57.5249	-2.57741	-168.23	7.60265	16.7461	-172.799	-6.82892	36.5114	-148.446	-11.7859	26.9804	
3	0.025	-140.158	-39.5234	6.328	-139.682	-42.021	-19.354	-133.54	-39.5024	-42.2659	-132.193	-37.5555	-61.3143	-124.253	6.30921	-38.7532	-128.321	-2.08865	-65.7523	-147.503	-18.2906	-68.8917	-137.241	23.7362	-30.3528	-131.504	38.4915	-53.2923	-129.095	50.1668	-73.7855	-152.796	31.0478	-20.0307	-147.141	49.5386	-31.2181	-140.657	61.8417	-37.2802	-175.403	24.0842	-9.21385	-171.935	43.4507	-10.5023	-169.597	58.0876	-4.84308	-165.792	10.9466	9.05762	-173.095	0.432122	32.3342	-144.554	-6.76456	19.3315	
4	0.0333333	-144.759	-36.2865	5.91057	-141.927	-41.2489	-25.267	-137.963	-43.3829	-46.6608	-138.492	-40.7124	-68.9446	-126.396	3.53051	-44.1821	-134.567	-1.54168	-70.5212	-153.214	-25.2413	-72.0049	-137.061	25.9931	-43.0467	-135.073	35.2421	-65.8797	-134.758	44.5783	-83.6167	-160.067	33.5129	-27.5462	-149.359	49.718	-42.1489	-145.462	65.394	-51.2293	-180.828	30.6941	-12.1028	-173.816	43.6994	-17.6995	-171.15	59.5434	-10.8303	-165.296	15.1274	6.04814	-165.069	2.73307	27.6421	-144.481	-3.54274	13.1398	
5	0.0416667	-143.417	-32.1312	-0.420181	-145.438	-40.232	-26.5442	-144.535	-40.013	-51.5802	-147.175	-42.0523	-72.6226	-131.455	1.30533	-50.345	-148.831	-5.90483	-75.4971	-162.982	-27.9601	-70.8488	-145.65	26.2006	-49.1193	-142.368	32.7175	-70.8832	-146.679	42.0987	-93.0798	-163.315	34.3275	-33.5364	-157.082	49.6458	-50.5383	-153.812	61.2637	-60.1952	-179.718	31.8934	-15.7235	-176.794	43.4473	-22.5512	-174.172	61.1125	-18.7102	-162.481	14.196	4.75446	-164.667	6.73161	26.3607	-140.776	-3.29377	9.03999	
6	0.05	-141.923	-31.8964	-3.46641	-147.807	-41.5333	-30.1318	-153.024	-42.2392	-49.2314	-157.296	-41.9031	-71.2916	-141.601	2.93375	-60.1029	-152.952	-8.73161	-78.0568	-173.348	-27.9547	-69.0849	-150.896	26.3319	-54.9772	-149.162	29.9409	-74.7619	-153.662	39.2979	-100.889	-162.773	30.98	-37.7196	-161.808	46.0279	-55.7128	-155.496	60.4324	-71.3602	-182.506	35.6063	-17.7756	-179.192	51.5614	-26.1657	-174.432	64.4314	-24.1474	-161.561	15.01	0.753189	-162.094	11.1487	25.4229	-140.836	1.7958	6.71001	
7	0.0583333	-142.381	-32.0042	-1.42823	-152.244	-42.33	-28.0569	-157.095	-44.5504	-54.3473	-165.595	-46.4924	-72.9034	-146.229	0.488457	-63.5437	-165.229	-14.8437	-79.4063	-182.762	-28.8982	-66.9224	-154.246	23.9739	-59.6611	-157.145	28.4866	-79.8527	-161.525	34.1339	-108.506	-164.556	32.4212	-42.1948	-167.786	47.3282	-59.8367	-164.983	57.5754	-74.9345	-181.329	40.2068	-20.7788	-180.354	49.7068	-29.3274	-174.335	69.2313	-30.7244	-163.403	21.3344	-0.664999	-158.047	15.2467	20.7051	-136.667	2.43271	0.782121	
8	0.0666667	-144.88	-29.8832	-5.77537	-157.864	-40.4829	-30.0492	-165.815	-42.996	-49.9935	-176.582	-45.0868	-72.1957	-151.671	-2.09733	-64.1724	-175.462	-17.2724	-78.3955	-188.519	-36.2852	-59.6369	-158.168	21.2944	-59.9965	-167.079	28.1127	-85.6278	-173.038	30.8589	-107.942	-168.706	34.6415	-45.688	-171.7	45.859	-62.8073	-168.63	55.2153	-82.3576	-183.042	38.0709	-20.223	-182.357	49.7808	-31.672	-177.531	68.4058	-34.3462	-161.2	21.6623	-5.78954	-155.988	17.2299	20.6761	-139.303	3.11096	-2.20736	
9	0.075	-147.053	-27.6143	-4.6865	-161.043	-44.7353	-29.4545	-170.079	-49.7338	-47.5816	-184.485	-48.4634	-64.0923	-159.102	-6.66528	-66.8353	-181.747	-16.7841	-76.8839	-197.579	-34.9357	-57.3373	-163.899	18.5053	-65.4819	-171.971	21.2393	-87.1078	-183.082	24.6038	-108.182	-171.049	31.918	-50.6175	-177.875	43.5871	-63.7925	-178.063	51.6829	-83.7284	-183.258	35.5707	-24.8438	-186.497	52.6142	-34.8003	-181.976	66.5606	-40.3343	-163.137	25.0037	-7.0982	-154.305	21.1322	13.5918	-139.06	3.49672	-5.35453	
10	0.0833333	-148.352	-28.1489	-8.99556	-165.732	-43.2469	-27.4155	-178.161	-49.5363	-46.3859	-192.585	-53.4893	-63.9569	-168.667	-8.15584	-67.6102	-189.061	-23.1382	-74.5744	-204.131	-36.6274	-50.6582	-172.487	17.1429	-68.7083	-181.723	17.6074	-87.0696	-196.329	22.4799	-107.068	-181.12	33.5097	-48.6558	-184.781	41.1544	-66.6846	-185.784	49.5356	-87.2824	-187.029	35.9743	-26.8059	-190.176	51.5418	-36.8891	-187.807	65.5536	-43.4948	-164.82	25.4038	-9.7442	-155.296	21.6987	9.08307	-141.783	6.42055	-9.6903	
11	0.0916667	-152.766	-26.5377	-6.43184	-169.557	-47.0291	-25.1579	-182.873	-53.7824	-42.8562	-198.739	-54.8387	-57.1137	-174.803	-12.5451	-68.8074	-197.918	-27.6514	-71.4643	-209.11	-38.0629	-50.5279	-178.653	13.4148	-67.2706	-192.364	15.5347	-88.4925	-206.677	16.9326	-110.294	-185.537	29.8445	-48.9137	-190.575	35.878	-68.9516	-195.898	45.993	-84.5769	-190.839	38.5376	-32.1811	-195.419	47.3547	-38.756	-193.654	66.6409	-43.7144	-166.468	26.1904	-14.406	-156.224	24.3946	8.43115	-144.859	2.64182	-15.0895	
12	0.1	-156.343	-25.0344	-11.9147	-176.304	-42.4758	-23.6379	-188.649	-56.544	-39.5327	-204.198	-62.2879	-54.0132	-181.728	-15.9527	-69.6452	-202.633	-32.3421	-70.498	-213.104	-42.4092	-48.7624	-186.125	9.46665	-70.1319	-201.813	10.8101	-89.3146	-214.649	12.7389	-105.596	-193.612	29.9503	-50.0521	-199.606	34.0433	-72.2965	-206.337	42.981	-86.263	-198.431	35.8884	-26.687	-203.522	45.9179	-36.6309	-199.999	64.4386	-44.7668	-170.852	21.4511	-18.4322	-157.664	22.2549	7.41666	-149.302	4.35267	-14.6107	
13	0.108333	-158.158	-26.5741	-9.4195	-179.071	-46.8772	-24.2773	-193.217	-57.6263	-39.0297	-210.506	-64.89	-50.4326	-187.496	-13.2051	-66.391	-208.07	-31.594	-70.2008	-217.764	-46.0597	-42.9642	-195.249	9.49643	-70.8914	-208.798	6.50031	-88.7461	-222.228	6.40875	-104.779	-201.255	26.9201	-52.6632	-209.774	31.3242	-67.0843	-216.799	38.4441	-84.0642	-205.585	35.7751	-31.0565	-213.511	48.4701	-37.4893	-210.007	61.0147	-44.1197	-177.742	22.0579	-18.5463	-162.442	24.7816	3.22696	-151.593	7.44447	-15.2984	
14	0.116667	-160.147	-25.5917	-11.9682	-180.513	-45.3098	-20.3707	-195.549	-58.7579	-33.9291	-212.794	-65.6618	-45.0668	-195.712	-15.8147	-67.4573	-214.413	-33.9893	-67.4078	-221.458	-48.9822	-42.9659	-201.117	6.15817	-67.5339	-216.014	2.22557	-86.1377	-235.687	1.82318	-105.922	-209.682	23.8476	-51.1233	-220.652	29.1019	-67.3769	-227.575	33.4636	-82.0178	-215.924	35.4632	-26.3782	-221.625	41.7803	-32.7852	-220.139	60.505	-40.3024	-184.694	25.8107	-15.1359	-169.651	24.0821	2.23956	-159.675	10.1782	-18.5256	
